<?xml version="1.0" encoding="UTF-8" standalone="no"?>
<!DOCTYPE svg PUBLIC "-//W3C//DTD SVG 1.1//EN" "http://www.w3.org/Graphics/SVG/1.1/DTD/svg11.dtd">
<svg width="100%" height="100%" viewBox="0 0 640 640" version="1.1" xmlns="http://www.w3.org/2000/svg" xmlns:xlink="http://www.w3.org/1999/xlink" xml:space="preserve" xmlns:serif="http://www.serif.com/" style="fill-rule:evenodd;clip-rule:evenodd;stroke-linejoin:round;stroke-miterlimit:2;">
    <g transform="matrix(1,0,0,1,-1349,0)">
        <g transform="matrix(0.914286,0,0,0.914286,891.857,-109.714)">
            <rect id="Emblem" x="500" y="120" width="700" height="700" style="fill:none;"/>
            <g id="Emblem1" serif:id="Emblem">
                <g id="Emblem2" serif:id="Emblem" transform="matrix(1.0757,0,0,1.0757,-16.1475,30.485)">
                    <g id="Logo-Shadow" serif:id="Logo Shadow" transform="matrix(1,0,0,1,19.3905,1.17127)">
                        <path d="M562.648,284.701C556.087,290.502 555.132,300.389 560.46,307.339C568.016,317.195 578.6,331 586.434,341.218C589.196,344.821 593.308,347.142 597.82,347.644C602.332,348.147 606.854,346.789 610.341,343.882C626.681,330.266 653.824,307.646 667.141,296.549C668.815,295.154 671.095,294.73 673.158,295.43C675.222,296.13 676.773,297.853 677.253,299.979C680.573,314.682 687.074,343.471 693.414,371.55C696.564,385.497 707.311,396.475 721.189,399.919C735.066,403.363 749.699,398.684 759.004,387.828C774.514,369.734 789.385,352.385 796.167,344.472C796.874,343.648 797.99,343.301 799.039,343.58C800.088,343.859 800.885,344.714 801.09,345.78C824.172,465.262 879.192,560.551 948.65,644.9C953.894,651.246 961.659,654.97 969.891,655.087C978.122,655.203 985.989,651.7 991.41,645.504C1004.3,630.803 1020.07,612.775 1030.08,601.336C1035.69,594.929 1035.57,585.327 1029.8,579.063C915.914,455.097 880.942,346.658 877.774,228.509C877.323,215.312 869.032,203.661 856.712,198.91C844.392,194.159 830.426,197.227 821.231,206.705C797.875,230.652 773.517,255.76 760.202,269.485C758.117,271.634 755.038,272.497 752.14,271.746C749.241,270.995 746.97,268.744 746.191,265.853C741.999,250.283 735.019,224.356 728.723,200.972C725.779,190.036 717.39,181.401 706.544,178.142C695.698,174.883 683.938,177.463 675.454,184.965C638.548,217.595 585.8,264.232 562.648,284.701Z" style="fill:rgb(242,166,0);"/>
                    </g>
                    <path id="Logo-Body" serif:id="Logo Body" d="M562.648,284.701C556.087,290.502 555.132,300.389 560.46,307.339C568.016,317.195 578.6,331 586.434,341.218C589.196,344.821 593.308,347.142 597.82,347.644C602.332,348.147 606.854,346.789 610.341,343.882C626.681,330.266 653.824,307.646 667.141,296.549C668.815,295.154 671.095,294.73 673.158,295.43C675.222,296.13 676.773,297.853 677.253,299.979C680.573,314.682 687.074,343.471 693.414,371.55C696.564,385.497 707.311,396.475 721.189,399.919C735.066,403.363 749.699,398.684 759.004,387.828C774.514,369.734 789.385,352.385 796.167,344.472C796.874,343.648 797.99,343.301 799.039,343.58C800.088,343.859 800.885,344.714 801.09,345.78C824.172,465.262 879.192,560.551 948.65,644.9C953.894,651.246 961.659,654.97 969.891,655.087C978.122,655.203 985.989,651.7 991.41,645.504C1004.3,630.803 1020.07,612.775 1030.08,601.336C1035.69,594.929 1035.57,585.327 1029.8,579.063C915.914,455.097 880.942,346.658 877.774,228.509C877.323,215.312 869.032,203.661 856.712,198.91C844.392,194.159 830.426,197.227 821.231,206.705C797.875,230.652 773.517,255.76 760.202,269.485C758.117,271.634 755.038,272.497 752.14,271.746C749.241,270.995 746.97,268.744 746.191,265.853C741.999,250.283 735.019,224.356 728.723,200.972C725.779,190.036 717.39,181.401 706.544,178.142C695.698,174.883 683.938,177.463 675.454,184.965C638.548,217.595 585.8,264.232 562.648,284.701Z" style="fill:rgb(255,204,50);"/>
                    <path id="Logo-Shading" serif:id="Logo Shading" d="M696.342,219.923C695.134,220.58 693.586,221.474 692.363,222.356C686.395,226.657 679.068,233.241 669.772,241.143C664.725,245.433 657.146,244.818 652.857,239.772C648.567,234.725 649.182,227.146 654.228,222.857C669.529,209.851 680.379,200.365 688.323,197.019C695.13,194.152 700.981,194.348 706.143,196.724C710.468,198.715 714.783,202.633 718.262,209.87C722.965,219.655 727.028,238.325 731.855,269.143C732.88,275.686 728.4,281.831 721.857,282.855C715.314,283.88 709.169,279.4 708.145,272.857C704.414,249.042 701.476,233.211 698.013,223.624C697.553,222.351 696.895,220.987 696.342,219.923ZM838.885,252.027C836.083,255.135 832.762,259.018 829.572,263.237C825.578,268.52 818.046,269.566 812.763,265.572C807.48,261.578 806.434,254.046 810.428,248.763C821.291,234.395 829.073,226.565 834.242,223.716C839.88,220.61 844.685,220.751 848.631,222.194C853.045,223.807 857.771,228.007 860.295,236.681C868.458,264.731 859.588,377.403 945.993,507.356C949.66,512.871 948.159,520.326 942.644,523.993C937.129,527.66 929.674,526.159 926.007,520.644C862.055,424.46 848.202,337.5 842.447,285.059C840.957,271.483 840.039,260.313 838.885,252.027ZM957,529C963.623,529 969,534.377 969,541C969,547.623 963.623,553 957,553C950.377,553 945,547.623 945,541C945,534.377 950.377,529 957,529Z" style="fill:rgb(255,241,112);"/>
                </g>
            </g>
        </g>
    </g>
</svg>
