<?xml version="1.0" encoding="UTF-8" standalone="no"?>
<!DOCTYPE svg PUBLIC "-//W3C//DTD SVG 1.1//EN" "http://www.w3.org/Graphics/SVG/1.1/DTD/svg11.dtd">
<svg width="100%" height="100%" viewBox="0 0 1590 640" version="1.1" xmlns="http://www.w3.org/2000/svg" xmlns:xlink="http://www.w3.org/1999/xlink" xml:space="preserve" xmlns:serif="http://www.serif.com/" style="fill-rule:evenodd;clip-rule:evenodd;stroke-linejoin:round;stroke-miterlimit:2;">
    <g transform="matrix(1,0,0,1,-2058,0)">
        <g transform="matrix(2.27143,0,0,0.914286,922.286,-109.714)">
            <rect id="Logotext" x="500" y="120" width="700" height="700" style="fill:none;"/>
            <g id="Logotext1" serif:id="Logotext">
                <g id="Name" transform="matrix(1.2901,0,0,1.06836,-188.72,-67.0373)">
                    <g id="Name-Shadow" serif:id="Name Shadow" transform="matrix(0.364583,0,0,1.09375,244.903,130.955)">
                        <path d="M1527.09,225.216C1524.08,225.045 1521.18,224.11 1518.41,222.338C1516.71,221.245 1514.87,220.074 1512.92,218.825C1511.18,217.716 1509.34,216.678 1507.41,215.707C1506.28,215.139 1504.97,214.916 1503.51,214.916C1501.31,214.916 1499.34,215.458 1497.61,216.615C1495.43,218.075 1493.56,220.133 1491.91,222.717C1489.93,225.819 1488.26,229.469 1486.85,233.649C1485.32,238.206 1484.01,243.18 1482.91,248.569C1481.8,254.073 1480.92,259.827 1480.27,265.83C1479.61,271.959 1479.11,278.139 1478.75,284.37C1478.28,292.49 1478.15,300.483 1478.36,308.348C1478.58,316.675 1478.48,324.384 1478.08,331.476C1477.67,338.519 1474.68,344.018 1469.21,348.031C1464.56,351.437 1458.22,353.414 1450.02,353.414C1448.53,353.414 1446.85,353.289 1444.98,353.02C1442.68,352.688 1440.52,352.018 1438.5,351.023C1436.25,349.911 1434.3,348.386 1432.65,346.439C1430.65,344.088 1429.4,340.992 1429.36,337.007C1428.96,328.089 1428.16,318.97 1426.98,309.649C1425.78,300.29 1424.16,290.957 1422.1,281.649C1420.05,272.381 1417.49,263.189 1414.41,254.072C1411.35,244.986 1407.75,236.103 1403.6,227.421L1403.6,227.412C1402.74,225.601 1402.02,223.909 1401.45,222.339C1400.55,219.874 1400.21,217.496 1400.34,215.221C1400.51,212.269 1401.72,208.933 1404.57,205.488C1406.51,203.15 1408.89,200.964 1411.75,198.96C1414.52,197.016 1417.52,195.425 1420.77,194.193C1424.37,192.829 1427.82,192.187 1431.12,192.187C1437.66,192.187 1443.84,195.826 1448.31,204.854C1449.23,206.723 1450.13,208.939 1450.98,211.502C1451.76,209.546 1452.57,207.67 1453.44,205.875C1457.32,197.794 1462.02,191.154 1467.45,185.904C1473.09,180.457 1479.45,176.46 1486.51,173.889C1493.37,171.393 1500.84,170.121 1508.92,170.121C1513.45,170.121 1518.01,170.525 1522.61,171.338C1523.6,171.514 1524.58,171.708 1525.53,171.921C1525.45,167.551 1525.48,164.353 1525.6,162.325C1526,155.428 1528.98,150.222 1534.36,146.601C1538.69,143.69 1544.73,141.951 1552.63,141.951C1556.12,141.951 1559.07,142.353 1561.47,143.051C1564.88,144.043 1567.57,145.801 1569.61,148.181C1571.37,150.227 1572.8,152.87 1573.71,156.196C1574.41,158.704 1574.87,161.817 1575.04,165.546C1575.05,165.555 1575.05,165.565 1575.05,165.574C1575.23,169.832 1575.34,174.383 1575.38,179.226C1575.42,183.986 1575.45,189.4 1575.47,195.468C1575.49,201.533 1575.48,208.381 1575.46,216.014C1575.46,218.517 1575.45,221.146 1575.46,223.898C1582.84,212.504 1590.32,203.311 1597.86,196.288C1609.96,185.025 1621.63,179.823 1632.46,179.823C1640.49,179.823 1646.57,182.502 1650.93,187.289C1655.22,192 1657.4,198.222 1656.95,206.123C1656.54,213.236 1654.6,219.806 1651.14,225.84C1648.01,231.31 1644.2,236.467 1639.72,241.305C1635.42,245.942 1630.81,250.304 1625.88,254.389C1621.33,258.168 1617.08,261.844 1613.15,265.419C1609.49,268.744 1606.4,271.99 1603.89,275.173C1602.29,277.203 1601.27,279.18 1601.15,281.24C1601.08,282.54 1602.33,283.524 1603.78,284.886C1606.91,287.824 1611.56,290.643 1617.64,293.491C1624.35,296.638 1632.62,299.672 1642.44,302.619C1651.65,305.383 1662.02,308.037 1673.56,310.587C1673.34,304.449 1673.01,298.561 1672.56,292.925C1671.63,281.364 1670.57,271.267 1669.37,262.634C1668.17,254.01 1667.08,247.028 1666.11,241.689C1664.93,235.261 1664.52,231.226 1664.62,229.619C1664.82,226.031 1666.21,222.459 1669.15,219.06C1671.31,216.558 1673.95,214.352 1677.12,212.475C1680.03,210.748 1683.15,209.371 1686.47,208.347C1690.04,207.246 1693.28,206.741 1696.17,206.741C1699.33,206.741 1702.02,207.391 1704.28,208.506C1707.55,210.121 1709.83,212.745 1710.96,216.513C1711,216.663 1711.05,216.814 1711.08,216.967C1711.12,217.148 1711.17,217.331 1711.21,217.514C1711.86,216.62 1712.51,215.773 1713.17,214.974C1716.34,211.133 1719.7,208.119 1723.22,205.878C1726.87,203.555 1730.62,201.948 1734.46,201.019C1738.08,200.142 1741.84,199.698 1745.72,199.698C1758.01,199.698 1768.17,204.504 1776.18,214.178C1781.25,220.302 1785.45,228.346 1788.65,238.371C1790.23,235.686 1791.88,233.212 1793.61,230.946C1797.67,225.601 1801.85,221.275 1806.09,217.927C1810.61,214.362 1815.19,211.798 1819.78,210.172C1824.55,208.485 1829.09,207.68 1833.37,207.68C1841.8,207.68 1849.28,210.69 1855.76,216.838C1861.39,222.173 1866.35,230.292 1870.33,241.382C1873.94,251.446 1876.88,264.168 1879.1,279.563C1881.26,294.556 1882.76,312.329 1883.6,332.884C1883.61,333.145 1883.6,333.406 1883.59,333.666C1883.09,342.43 1879.57,348.309 1874.01,351.798C1869.36,354.718 1863.22,356.388 1855.48,356.388C1849.42,356.388 1844.85,354.759 1841.56,352.141C1837.62,348.998 1835.48,344.882 1835.18,339.774C1835.18,339.716 1835.18,339.658 1835.17,339.6C1834.66,325.245 1833.92,312.465 1832.96,301.259C1832.02,290.244 1830.86,280.953 1829.47,273.389C1828.21,266.542 1826.77,261.304 1825,257.72C1824.94,257.607 1824.88,257.489 1824.81,257.37C1823.29,258.991 1821.73,261.738 1819.89,265.462C1817.41,270.48 1814.75,277.344 1811.87,286.039C1808.91,294.956 1805.92,306.346 1802.88,320.205C1801.55,326.388 1798.26,331.08 1793.11,334.337C1788.61,337.181 1783.25,338.704 1777,338.704C1769.04,338.704 1763.79,336.759 1760.89,334.262C1757.5,331.349 1755.2,326.662 1755.23,319.751C1755.21,313.098 1754.91,306.471 1754.33,299.868C1753.75,293.28 1752.93,286.994 1751.87,281.009C1750.81,275.072 1749.58,269.584 1748.17,264.545C1746.82,259.709 1745.35,255.491 1743.74,251.9C1742.38,248.882 1741.01,246.492 1739.5,244.802C1739.05,245.252 1738.49,245.838 1738.11,246.37C1735.81,249.52 1733.73,254.009 1731.74,259.77C1729.54,266.113 1727.65,273.747 1726.05,282.666C1724.41,291.77 1723.28,301.937 1722.64,313.166C1722.53,315.002 1722.47,316.814 1722.47,318.602C1722.46,320.671 1722.39,322.823 1722.27,325.059C1722.01,329.605 1720.94,333.285 1719.34,336.164C1717.54,339.394 1715.09,341.934 1712.01,343.803C1709.3,345.448 1706.21,346.597 1702.74,347.195C1699.9,347.685 1696.83,347.937 1693.52,347.937C1690.14,347.937 1687.45,347.648 1685.45,347.175C1683.43,346.697 1681.77,345.992 1680.4,345.156C1678.18,347.83 1675.74,350.012 1673.1,351.729C1669.58,354.023 1666.19,354.979 1663.07,354.979C1659.1,354.979 1654.39,354.477 1648.96,353.425C1643.89,352.444 1638.43,351.112 1632.59,349.422C1626.84,347.759 1620.91,345.828 1614.82,343.628C1608.71,341.425 1602.8,339.06 1597.09,336.534C1591.34,333.992 1585.92,331.34 1580.83,328.582C1578.02,327.057 1575.42,325.537 1573.04,324.026C1572.85,324.846 1572.65,325.613 1572.43,326.325C1571.25,330.162 1569.36,333.107 1566.97,335.287C1564.6,337.44 1561.48,339.073 1557.47,339.934C1554.58,340.554 1551.04,340.895 1546.82,340.895C1539.22,340.895 1534.25,338.684 1531.46,335.81C1528.59,332.858 1526.58,327.854 1527.01,320.386C1527.52,311.429 1527.82,301.701 1527.91,291.2C1528,280.618 1527.97,269.906 1527.81,259.065C1527.65,248.199 1527.43,237.566 1527.15,227.168C1527.13,226.514 1527.11,225.863 1527.09,225.216ZM1369.65,246.859L1369.61,252.515C1369.61,252.574 1369.61,252.633 1369.61,252.692C1369.22,265.865 1370.23,275.531 1373.24,281.611C1375.03,285.227 1377.19,287.492 1380.42,287.492C1381.92,287.492 1383.27,287.371 1384.47,287.086C1385.89,286.747 1387.23,286.346 1388.48,285.88C1390.19,285.245 1391.81,284.697 1393.34,284.235C1395.5,283.583 1397.64,283.267 1399.76,283.267C1404.54,283.267 1408.71,285.177 1412.11,289.333C1415.08,292.962 1416.5,297.288 1416.21,302.367C1415.96,306.805 1414.19,311.326 1410.53,315.765C1407.6,319.307 1403.87,322.528 1399.28,325.375C1394.94,328.062 1390.11,330.252 1384.76,331.923C1379.29,333.632 1373.81,334.478 1368.32,334.479C1357.83,334.478 1348.82,330.262 1341.38,321.591C1336.36,315.728 1332.49,307.818 1330,297.778C1320.15,308.147 1309.94,316.156 1299.39,321.857C1286.04,329.079 1273.04,332.601 1260.44,332.601C1254.07,332.601 1248.39,331.62 1243.38,329.747C1238.02,327.744 1233.56,324.871 1229.97,321.198C1226.34,317.489 1223.6,312.986 1221.82,307.658C1220.13,302.643 1219.43,297.03 1219.78,290.808C1220.25,282.701 1222.48,274.169 1226.58,265.239C1230.44,256.804 1235.49,248.473 1241.74,240.26C1247.88,232.18 1254.9,224.48 1262.8,217.165C1270.69,209.857 1278.91,203.424 1287.46,197.862C1296.16,192.21 1304.92,187.729 1313.76,184.405C1323.07,180.902 1331.88,179.197 1340.16,179.197C1346.8,179.197 1353.14,180.232 1359.17,182.283C1365.33,184.375 1370.69,187.289 1375.28,190.981C1380.08,194.844 1383.83,199.483 1386.55,204.891C1389.36,210.495 1390.62,216.689 1390.22,223.494C1390.03,226.847 1389.11,230.086 1387.41,233.199C1385.84,236.088 1383.81,238.607 1381.31,240.755C1378.9,242.835 1376.19,244.489 1373.17,245.708C1372.01,246.179 1370.84,246.563 1369.65,246.859ZM1331.89,241.345C1333.97,237.798 1335.84,235.215 1337.5,233.598C1339.16,231.981 1341.46,230.912 1344.41,230.39C1346.73,230.077 1347.92,229.347 1347.98,228.199C1348.03,227.365 1347.77,226.478 1347.19,225.539C1345.37,222.826 1343.42,220.453 1341.34,218.418C1339.27,216.384 1336.41,215.367 1332.76,215.367C1328.79,215.367 1324.29,216.514 1319.26,218.81C1314.22,221.105 1309.06,224.156 1303.79,227.965C1298.51,231.773 1293.3,236.102 1288.17,240.954C1283.04,245.805 1278.45,250.787 1274.4,255.899C1270.35,261.011 1267.04,266.071 1264.45,271.079C1261.87,276.087 1260.47,280.573 1260.24,284.538C1260.04,288.085 1260.84,290.85 1262.66,292.832C1264.47,294.814 1267.05,295.805 1270.39,295.805C1278.94,295.805 1288.54,291.267 1299.18,282.19C1309.83,273.113 1320.73,259.498 1331.89,241.345ZM1894.73,260.386C1893.77,259.773 1892.74,259.121 1891.65,258.432C1889.1,256.816 1886.82,254.769 1884.84,252.272C1882.41,249.217 1880.95,244.916 1881.28,239.165C1881.49,235.552 1882.61,231.917 1884.78,228.304C1886.71,225.092 1889.39,222.128 1892.9,219.474C1892.96,219.43 1893.02,219.387 1893.08,219.345C1899.78,214.55 1906.7,210.246 1913.84,206.433C1921.01,202.603 1928.14,199.378 1935.24,196.752C1942.4,194.104 1949.44,192.066 1956.37,190.631C1963.48,189.158 1970.27,188.431 1976.73,188.431C1987.88,188.431 1998.24,190.514 2007.82,194.638C2017.44,198.781 2025.68,204.454 2032.56,211.63C2039.44,218.806 2044.75,227.201 2048.45,236.827C2052.17,246.474 2053.73,256.79 2053.1,267.782C2052.48,278.524 2049.66,288.712 2044.61,298.345C2039.65,307.798 2033.25,316.075 2025.39,323.179C2017.56,330.262 2008.53,335.899 1998.29,340.069C1987.98,344.271 1977.24,346.372 1966.07,346.372C1955.07,346.372 1944.99,344.488 1935.82,340.781C1926.5,337.014 1918.57,331.785 1912.01,325.134C1905.4,318.435 1900.39,310.498 1897,301.309C1893.66,292.24 1892.26,282.326 1892.88,271.559C1893.01,269.349 1893.39,266.876 1894.07,264.146C1894.36,262.969 1894.58,261.715 1894.73,260.386ZM1971.13,302.203C1974.63,302.203 1978.29,301.456 1982.13,300.039C1986.09,298.573 1989.77,296.43 1993.16,293.627C1996.55,290.828 1999.41,287.395 2001.75,283.348C2003.98,279.496 2005.2,275.142 2005.47,270.307C2005.77,265.194 2005.13,260.418 2003.51,255.986C2001.91,251.613 1999.6,247.8 1996.55,244.563C1993.5,241.331 1989.82,238.806 1985.52,236.959C1981.13,235.077 1976.33,234.165 1971.11,234.165C1961.88,234.165 1954.59,236.264 1949.41,241.042C1944.22,245.832 1941.72,253.33 1941.15,263.243C1940.82,269.048 1941.35,274.431 1942.81,279.387C1944.2,284.105 1946.25,288.2 1949.03,291.643C1951.7,294.958 1954.93,297.56 1958.71,299.443C1962.45,301.306 1966.6,302.203 1971.13,302.203ZM2071.49,369.496C2072.94,369.496 2074.16,369.39 2075.13,368.974C2075.44,368.839 2075.58,368.483 2075.78,368.124C2076.59,366.665 2077.12,364.668 2077.56,362.188C2078.14,358.881 2078.57,354.649 2078.86,349.494C2080.07,328.409 2080.38,310.256 2079.76,295.034C2079.14,279.808 2078.26,266.948 2077.12,256.455C2075.98,246.036 2074.85,237.685 2073.73,231.404C2072.44,224.173 2071.98,218.67 2072.19,214.908C2072.54,208.836 2075.4,203.809 2081.16,200.058C2085.54,197.198 2091.37,195.438 2098.74,195.165C2098.84,195.162 2098.93,195.16 2099.03,195.16C2111.88,195.16 2118.61,200.41 2120.85,207.917C2120.89,208.059 2120.93,208.203 2120.97,208.347C2122.79,215.99 2124.36,224.788 2125.67,234.744C2126.97,244.571 2127.95,255.168 2128.63,266.536C2129.3,277.855 2129.63,289.676 2129.61,302C2129.59,314.302 2129.22,326.683 2128.5,339.144C2127.72,352.706 2126.26,364.122 2124.16,373.399C2121.85,383.54 2118.39,391.656 2113.94,397.824C2109.09,404.547 2102.95,409.342 2095.54,412.251C2088.76,414.912 2080.48,416.326 2070.66,416.326C2064.96,416.326 2059.03,415.609 2052.89,414.154C2046.97,412.753 2041.22,410.902 2035.63,408.603C2029.99,406.281 2024.68,403.532 2019.71,400.36C2014.69,397.157 2010.31,393.803 2006.57,390.314C2002.52,386.546 1999.37,382.664 1997.06,378.709C1994.22,373.839 1993.07,369.084 1993.33,364.518C1993.49,361.78 1994.53,358.584 1996.92,355.117C1998.63,352.628 2000.69,350.298 2003.11,348.137C2005.52,345.975 2008.09,344.178 2010.79,342.737C2014.34,340.846 2017.54,340.075 2020.29,340.075C2023.77,340.075 2027.37,341.182 2030.98,343.745C2033.3,345.394 2035.78,347.447 2038.4,349.92C2040.74,352.123 2043.23,354.483 2045.86,357.001C2048.19,359.225 2050.76,361.307 2053.57,363.253C2056.23,365.101 2059.12,366.639 2062.21,367.872C2065,368.979 2068.09,369.496 2071.49,369.496ZM2103.22,185.177C2099.28,185.041 2095.68,184.334 2092.41,183.107C2088.9,181.792 2085.91,179.976 2083.41,177.711C2080.8,175.345 2078.79,172.591 2077.37,169.461C2075.87,166.162 2075.2,162.588 2075.42,158.726C2075.81,151.933 2078.7,146.429 2084.12,142.224C2088.88,138.527 2095.04,136.474 2102.72,136.474C2106.58,136.474 2110.22,137.166 2113.64,138.524C2117.07,139.886 2120.07,141.76 2122.66,144.125C2125.37,146.596 2127.44,149.448 2128.9,152.668C2130.46,156.098 2131.14,159.727 2130.92,163.556C2130.51,170.659 2127.53,176.095 2122.18,179.976C2117.66,183.266 2111.48,185.182 2103.5,185.182C2103.41,185.182 2103.32,185.18 2103.22,185.177ZM2188.12,172.349C2184.17,172.349 2180.5,171.751 2177.09,170.593C2173.41,169.344 2170.3,167.547 2167.71,165.268C2165.03,162.909 2162.95,160.129 2161.46,156.932C2159.89,153.57 2159.18,149.895 2159.41,145.893C2159.8,139.067 2162.79,133.514 2168.48,129.289C2173.37,125.656 2179.67,123.641 2187.49,123.641C2191.26,123.641 2194.84,124.337 2198.23,125.713C2201.59,127.073 2204.52,128.912 2207.04,131.202C2209.69,133.613 2211.74,136.439 2213.22,139.679C2214.79,143.135 2215.45,146.713 2215.24,150.41C2214.84,157.442 2211.88,162.925 2206.49,166.932C2201.84,170.398 2195.76,172.349 2188.12,172.349ZM2155.95,211.622C2156.3,205.542 2159.08,200.46 2164.61,196.552C2169.13,193.347 2174.91,191.561 2182.03,191.561C2190.41,191.561 2196.14,193.914 2199.63,197.377C2202.56,200.287 2204.3,204.098 2204.49,208.949C2204.49,208.959 2204.49,208.969 2204.49,208.979C2204.65,213.488 2204.8,218.574 2204.95,224.236C2205.1,229.893 2205.22,235.889 2205.33,242.227C2205.44,248.59 2205.48,255.165 2205.46,261.949C2205.44,268.696 2205.4,275.337 2205.34,281.874C2205.27,288.432 2205.17,294.754 2205.03,300.84C2204.89,306.992 2204.67,312.613 2204.38,317.704C2203.92,325.704 2200.56,331.608 2194.65,335.608C2189.73,338.939 2182.81,340.895 2173.74,340.895C2168.19,340.895 2164.02,339.261 2161.03,336.661C2157.56,333.639 2155.61,329.352 2155.94,323.516C2156.76,309.272 2157.19,295.931 2157.23,283.493C2157.28,270.998 2157.19,259.878 2156.97,250.131C2156.75,240.401 2156.49,232.302 2156.19,225.833C2155.87,218.907 2155.8,214.17 2155.95,211.622Z" style="fill:rgb(242,166,0);"/>
                    </g>
                    <g id="Name-Body" serif:id="Name Body" transform="matrix(0.364583,0,0,1.09375,239.323,120)">
                        <path d="M1527.09,225.216C1524.08,225.045 1521.18,224.11 1518.41,222.338C1516.71,221.245 1514.87,220.074 1512.92,218.825C1511.18,217.716 1509.34,216.678 1507.41,215.707C1506.28,215.139 1504.97,214.916 1503.51,214.916C1501.31,214.916 1499.34,215.458 1497.61,216.615C1495.43,218.075 1493.56,220.133 1491.91,222.717C1489.93,225.819 1488.26,229.469 1486.85,233.649C1485.32,238.206 1484.01,243.18 1482.91,248.569C1481.8,254.073 1480.92,259.827 1480.27,265.83C1479.61,271.959 1479.11,278.139 1478.75,284.37C1478.28,292.49 1478.15,300.483 1478.36,308.348C1478.58,316.675 1478.48,324.384 1478.08,331.476C1477.67,338.519 1474.68,344.018 1469.21,348.031C1464.56,351.437 1458.22,353.414 1450.02,353.414C1448.53,353.414 1446.85,353.289 1444.98,353.02C1442.68,352.688 1440.52,352.018 1438.5,351.023C1436.25,349.911 1434.3,348.386 1432.65,346.439C1430.65,344.088 1429.4,340.992 1429.36,337.007C1428.96,328.089 1428.16,318.97 1426.98,309.649C1425.78,300.29 1424.16,290.957 1422.1,281.649C1420.05,272.381 1417.49,263.189 1414.41,254.072C1411.35,244.986 1407.75,236.103 1403.6,227.421L1403.6,227.412C1402.74,225.601 1402.02,223.909 1401.45,222.339C1400.55,219.874 1400.21,217.496 1400.34,215.221C1400.51,212.269 1401.72,208.933 1404.57,205.488C1406.51,203.15 1408.89,200.964 1411.75,198.96C1414.52,197.016 1417.52,195.425 1420.77,194.193C1424.37,192.829 1427.82,192.187 1431.12,192.187C1437.66,192.187 1443.84,195.826 1448.31,204.854C1449.23,206.723 1450.13,208.939 1450.98,211.502C1451.76,209.546 1452.57,207.67 1453.44,205.875C1457.32,197.794 1462.02,191.154 1467.45,185.904C1473.09,180.457 1479.45,176.46 1486.51,173.889C1493.37,171.393 1500.84,170.121 1508.92,170.121C1513.45,170.121 1518.01,170.525 1522.61,171.338C1523.6,171.514 1524.58,171.708 1525.53,171.921C1525.45,167.551 1525.48,164.353 1525.6,162.325C1526,155.428 1528.98,150.222 1534.36,146.601C1538.69,143.69 1544.73,141.951 1552.63,141.951C1556.12,141.951 1559.07,142.353 1561.47,143.051C1564.88,144.043 1567.57,145.801 1569.61,148.181C1571.37,150.227 1572.8,152.87 1573.71,156.196C1574.41,158.704 1574.87,161.817 1575.04,165.546C1575.05,165.555 1575.05,165.565 1575.05,165.574C1575.23,169.832 1575.34,174.383 1575.38,179.226C1575.42,183.986 1575.45,189.4 1575.47,195.468C1575.49,201.533 1575.48,208.381 1575.46,216.014C1575.46,218.517 1575.45,221.146 1575.46,223.898C1582.84,212.504 1590.32,203.311 1597.86,196.288C1609.96,185.025 1621.63,179.823 1632.46,179.823C1640.49,179.823 1646.57,182.502 1650.93,187.289C1655.22,192 1657.4,198.222 1656.95,206.123C1656.54,213.236 1654.6,219.806 1651.14,225.84C1648.01,231.31 1644.2,236.467 1639.72,241.305C1635.42,245.942 1630.81,250.304 1625.88,254.389C1621.33,258.168 1617.08,261.844 1613.15,265.419C1609.49,268.744 1606.4,271.99 1603.89,275.173C1602.29,277.203 1601.27,279.18 1601.15,281.24C1601.08,282.54 1602.33,283.524 1603.78,284.886C1606.91,287.824 1611.56,290.643 1617.64,293.491C1624.35,296.638 1632.62,299.672 1642.44,302.619C1651.65,305.383 1662.02,308.037 1673.56,310.587C1673.34,304.449 1673.01,298.561 1672.56,292.925C1671.63,281.364 1670.57,271.267 1669.37,262.634C1668.17,254.01 1667.08,247.028 1666.11,241.689C1664.93,235.261 1664.52,231.226 1664.62,229.619C1664.82,226.031 1666.21,222.459 1669.15,219.06C1671.31,216.558 1673.95,214.352 1677.12,212.475C1680.03,210.748 1683.15,209.371 1686.47,208.347C1690.04,207.246 1693.28,206.741 1696.17,206.741C1699.33,206.741 1702.02,207.391 1704.28,208.506C1707.55,210.121 1709.83,212.745 1710.96,216.513C1711,216.663 1711.05,216.814 1711.08,216.967C1711.12,217.148 1711.17,217.331 1711.21,217.514C1711.86,216.62 1712.51,215.773 1713.17,214.974C1716.34,211.133 1719.7,208.119 1723.22,205.878C1726.87,203.555 1730.62,201.948 1734.46,201.019C1738.08,200.142 1741.84,199.698 1745.72,199.698C1758.01,199.698 1768.17,204.504 1776.18,214.178C1781.25,220.302 1785.45,228.346 1788.65,238.371C1790.23,235.686 1791.88,233.212 1793.61,230.946C1797.67,225.601 1801.85,221.275 1806.09,217.927C1810.61,214.362 1815.19,211.798 1819.78,210.172C1824.55,208.485 1829.09,207.68 1833.37,207.68C1841.8,207.68 1849.28,210.69 1855.76,216.838C1861.39,222.173 1866.35,230.292 1870.33,241.382C1873.94,251.446 1876.88,264.168 1879.1,279.563C1881.26,294.556 1882.76,312.329 1883.6,332.884C1883.61,333.145 1883.6,333.406 1883.59,333.666C1883.09,342.43 1879.57,348.309 1874.01,351.798C1869.36,354.718 1863.22,356.388 1855.48,356.388C1849.42,356.388 1844.85,354.759 1841.56,352.141C1837.62,348.998 1835.48,344.882 1835.18,339.774C1835.18,339.716 1835.18,339.658 1835.17,339.6C1834.66,325.245 1833.92,312.465 1832.96,301.259C1832.02,290.244 1830.86,280.953 1829.47,273.389C1828.21,266.542 1826.77,261.304 1825,257.72C1824.94,257.607 1824.88,257.489 1824.81,257.37C1823.29,258.991 1821.73,261.738 1819.89,265.462C1817.41,270.48 1814.75,277.344 1811.87,286.039C1808.91,294.956 1805.92,306.346 1802.88,320.205C1801.55,326.388 1798.26,331.08 1793.11,334.337C1788.61,337.181 1783.25,338.704 1777,338.704C1769.04,338.704 1763.79,336.759 1760.89,334.262C1757.5,331.349 1755.2,326.662 1755.23,319.751C1755.21,313.098 1754.91,306.471 1754.33,299.868C1753.75,293.28 1752.93,286.994 1751.87,281.009C1750.81,275.072 1749.58,269.584 1748.17,264.545C1746.82,259.709 1745.35,255.491 1743.74,251.9C1742.38,248.882 1741.01,246.492 1739.5,244.802C1739.05,245.252 1738.49,245.838 1738.11,246.37C1735.81,249.52 1733.73,254.009 1731.74,259.77C1729.54,266.113 1727.65,273.747 1726.05,282.666C1724.41,291.77 1723.28,301.937 1722.64,313.166C1722.53,315.002 1722.47,316.814 1722.47,318.602C1722.46,320.671 1722.39,322.823 1722.27,325.059C1722.01,329.605 1720.94,333.285 1719.34,336.164C1717.54,339.394 1715.09,341.934 1712.01,343.803C1709.3,345.448 1706.21,346.597 1702.74,347.195C1699.9,347.685 1696.83,347.937 1693.52,347.937C1690.14,347.937 1687.45,347.648 1685.45,347.175C1683.43,346.697 1681.77,345.992 1680.4,345.156C1678.18,347.83 1675.74,350.012 1673.1,351.729C1669.58,354.023 1666.19,354.979 1663.07,354.979C1659.1,354.979 1654.39,354.477 1648.96,353.425C1643.89,352.444 1638.43,351.112 1632.59,349.422C1626.84,347.759 1620.91,345.828 1614.82,343.628C1608.71,341.425 1602.8,339.06 1597.09,336.534C1591.34,333.992 1585.92,331.34 1580.83,328.582C1578.02,327.057 1575.42,325.537 1573.04,324.026C1572.85,324.846 1572.65,325.613 1572.43,326.325C1571.25,330.162 1569.36,333.107 1566.97,335.287C1564.6,337.44 1561.48,339.073 1557.47,339.934C1554.58,340.554 1551.04,340.895 1546.82,340.895C1539.22,340.895 1534.25,338.684 1531.46,335.81C1528.59,332.858 1526.58,327.854 1527.01,320.386C1527.52,311.429 1527.82,301.701 1527.91,291.2C1528,280.618 1527.97,269.906 1527.81,259.065C1527.65,248.199 1527.43,237.566 1527.15,227.168C1527.13,226.514 1527.11,225.863 1527.09,225.216ZM1369.65,246.859L1369.61,252.515C1369.61,252.574 1369.61,252.633 1369.61,252.692C1369.22,265.865 1370.23,275.531 1373.24,281.611C1375.03,285.227 1377.19,287.492 1380.42,287.492C1381.92,287.492 1383.27,287.371 1384.47,287.086C1385.89,286.747 1387.23,286.346 1388.48,285.88C1390.19,285.245 1391.81,284.697 1393.34,284.235C1395.5,283.583 1397.64,283.267 1399.76,283.267C1404.54,283.267 1408.71,285.177 1412.11,289.333C1415.08,292.962 1416.5,297.288 1416.21,302.367C1415.96,306.805 1414.19,311.326 1410.53,315.765C1407.6,319.307 1403.87,322.528 1399.28,325.375C1394.94,328.062 1390.11,330.252 1384.76,331.923C1379.29,333.632 1373.81,334.478 1368.32,334.479C1357.83,334.478 1348.82,330.262 1341.38,321.591C1336.36,315.728 1332.49,307.818 1330,297.778C1320.15,308.147 1309.94,316.156 1299.39,321.857C1286.04,329.079 1273.04,332.601 1260.44,332.601C1254.07,332.601 1248.39,331.62 1243.38,329.747C1238.02,327.744 1233.56,324.871 1229.97,321.198C1226.34,317.489 1223.6,312.986 1221.82,307.658C1220.13,302.643 1219.43,297.03 1219.78,290.808C1220.25,282.701 1222.48,274.169 1226.58,265.239C1230.44,256.804 1235.49,248.473 1241.74,240.26C1247.88,232.18 1254.9,224.48 1262.8,217.165C1270.69,209.857 1278.91,203.424 1287.46,197.862C1296.16,192.21 1304.92,187.729 1313.76,184.405C1323.07,180.902 1331.88,179.197 1340.16,179.197C1346.8,179.197 1353.14,180.232 1359.17,182.283C1365.33,184.375 1370.69,187.289 1375.28,190.981C1380.08,194.844 1383.83,199.483 1386.55,204.891C1389.36,210.495 1390.62,216.689 1390.22,223.494C1390.03,226.847 1389.11,230.086 1387.41,233.199C1385.84,236.088 1383.81,238.607 1381.31,240.755C1378.9,242.835 1376.19,244.489 1373.17,245.708C1372.01,246.179 1370.84,246.563 1369.65,246.859ZM1331.89,241.345C1333.97,237.798 1335.84,235.215 1337.5,233.598C1339.16,231.981 1341.46,230.912 1344.41,230.39C1346.73,230.077 1347.92,229.347 1347.98,228.199C1348.03,227.365 1347.77,226.478 1347.19,225.539C1345.37,222.826 1343.42,220.453 1341.34,218.418C1339.27,216.384 1336.41,215.367 1332.76,215.367C1328.79,215.367 1324.29,216.514 1319.26,218.81C1314.22,221.105 1309.06,224.156 1303.79,227.965C1298.51,231.773 1293.3,236.102 1288.17,240.954C1283.04,245.805 1278.45,250.787 1274.4,255.899C1270.35,261.011 1267.04,266.071 1264.45,271.079C1261.87,276.087 1260.47,280.573 1260.24,284.538C1260.04,288.085 1260.84,290.85 1262.66,292.832C1264.47,294.814 1267.05,295.805 1270.39,295.805C1278.94,295.805 1288.54,291.267 1299.18,282.19C1309.83,273.113 1320.73,259.498 1331.89,241.345ZM1894.73,260.386C1893.77,259.773 1892.74,259.121 1891.65,258.432C1889.1,256.816 1886.82,254.769 1884.84,252.272C1882.41,249.217 1880.95,244.916 1881.28,239.165C1881.49,235.552 1882.61,231.917 1884.78,228.304C1886.71,225.092 1889.39,222.128 1892.9,219.474C1892.96,219.43 1893.02,219.387 1893.08,219.345C1899.78,214.55 1906.7,210.246 1913.84,206.433C1921.01,202.603 1928.14,199.378 1935.24,196.752C1942.4,194.104 1949.44,192.066 1956.37,190.631C1963.48,189.158 1970.27,188.431 1976.73,188.431C1987.88,188.431 1998.24,190.514 2007.82,194.638C2017.44,198.781 2025.68,204.454 2032.56,211.63C2039.44,218.806 2044.75,227.201 2048.45,236.827C2052.17,246.474 2053.73,256.79 2053.1,267.782C2052.48,278.524 2049.66,288.712 2044.61,298.345C2039.65,307.798 2033.25,316.075 2025.39,323.179C2017.56,330.262 2008.53,335.899 1998.29,340.069C1987.98,344.271 1977.24,346.372 1966.07,346.372C1955.07,346.372 1944.99,344.488 1935.82,340.781C1926.5,337.014 1918.57,331.785 1912.01,325.134C1905.4,318.435 1900.39,310.498 1897,301.309C1893.66,292.24 1892.26,282.326 1892.88,271.559C1893.01,269.349 1893.39,266.876 1894.07,264.146C1894.36,262.969 1894.58,261.715 1894.73,260.386ZM1971.13,302.203C1974.63,302.203 1978.29,301.456 1982.13,300.039C1986.09,298.573 1989.77,296.43 1993.16,293.627C1996.55,290.828 1999.41,287.395 2001.75,283.348C2003.98,279.496 2005.2,275.142 2005.47,270.307C2005.77,265.194 2005.13,260.418 2003.51,255.986C2001.91,251.613 1999.6,247.8 1996.55,244.563C1993.5,241.331 1989.82,238.806 1985.52,236.959C1981.13,235.077 1976.33,234.165 1971.11,234.165C1961.88,234.165 1954.59,236.264 1949.41,241.042C1944.22,245.832 1941.72,253.33 1941.15,263.243C1940.82,269.048 1941.35,274.431 1942.81,279.387C1944.2,284.105 1946.25,288.2 1949.03,291.643C1951.7,294.958 1954.93,297.56 1958.71,299.443C1962.45,301.306 1966.6,302.203 1971.13,302.203ZM2071.49,369.496C2072.94,369.496 2074.16,369.39 2075.13,368.974C2075.44,368.839 2075.58,368.483 2075.78,368.124C2076.59,366.665 2077.12,364.668 2077.56,362.188C2078.14,358.881 2078.57,354.649 2078.86,349.494C2080.07,328.409 2080.38,310.256 2079.76,295.034C2079.14,279.808 2078.26,266.948 2077.12,256.455C2075.98,246.036 2074.85,237.685 2073.73,231.404C2072.44,224.173 2071.98,218.67 2072.19,214.908C2072.54,208.836 2075.4,203.809 2081.16,200.058C2085.54,197.198 2091.37,195.438 2098.74,195.165C2098.84,195.162 2098.93,195.16 2099.03,195.16C2111.88,195.16 2118.61,200.41 2120.85,207.917C2120.89,208.059 2120.93,208.203 2120.97,208.347C2122.79,215.99 2124.36,224.788 2125.67,234.744C2126.97,244.571 2127.95,255.168 2128.63,266.536C2129.3,277.855 2129.63,289.676 2129.61,302C2129.59,314.302 2129.22,326.683 2128.5,339.144C2127.72,352.706 2126.26,364.122 2124.16,373.399C2121.85,383.54 2118.39,391.656 2113.94,397.824C2109.09,404.547 2102.95,409.342 2095.54,412.251C2088.76,414.912 2080.48,416.326 2070.66,416.326C2064.96,416.326 2059.03,415.609 2052.89,414.154C2046.97,412.753 2041.22,410.902 2035.63,408.603C2029.99,406.281 2024.68,403.532 2019.71,400.36C2014.69,397.157 2010.31,393.803 2006.57,390.314C2002.52,386.546 1999.37,382.664 1997.06,378.709C1994.22,373.839 1993.07,369.084 1993.33,364.518C1993.49,361.78 1994.53,358.584 1996.92,355.117C1998.63,352.628 2000.69,350.298 2003.11,348.137C2005.52,345.975 2008.09,344.178 2010.79,342.737C2014.34,340.846 2017.54,340.075 2020.29,340.075C2023.77,340.075 2027.37,341.182 2030.98,343.745C2033.3,345.394 2035.78,347.447 2038.4,349.92C2040.74,352.123 2043.23,354.483 2045.86,357.001C2048.19,359.225 2050.76,361.307 2053.57,363.253C2056.23,365.101 2059.12,366.639 2062.21,367.872C2065,368.979 2068.09,369.496 2071.49,369.496ZM2103.22,185.177C2099.28,185.041 2095.68,184.334 2092.41,183.107C2088.9,181.792 2085.91,179.976 2083.41,177.711C2080.8,175.345 2078.79,172.591 2077.37,169.461C2075.87,166.162 2075.2,162.588 2075.42,158.726C2075.81,151.933 2078.7,146.429 2084.12,142.224C2088.88,138.527 2095.04,136.474 2102.72,136.474C2106.58,136.474 2110.22,137.166 2113.64,138.524C2117.07,139.886 2120.07,141.76 2122.66,144.125C2125.37,146.596 2127.44,149.448 2128.9,152.668C2130.46,156.098 2131.14,159.727 2130.92,163.556C2130.51,170.659 2127.53,176.095 2122.18,179.976C2117.66,183.266 2111.48,185.182 2103.5,185.182C2103.41,185.182 2103.32,185.18 2103.22,185.177ZM2188.12,172.349C2184.17,172.349 2180.5,171.751 2177.09,170.593C2173.41,169.344 2170.3,167.547 2167.71,165.268C2165.03,162.909 2162.95,160.129 2161.46,156.932C2159.89,153.57 2159.18,149.895 2159.41,145.893C2159.8,139.067 2162.79,133.514 2168.48,129.289C2173.37,125.656 2179.67,123.641 2187.49,123.641C2191.26,123.641 2194.84,124.337 2198.23,125.713C2201.59,127.073 2204.52,128.912 2207.04,131.202C2209.69,133.613 2211.74,136.439 2213.22,139.679C2214.79,143.135 2215.45,146.713 2215.24,150.41C2214.84,157.442 2211.88,162.925 2206.49,166.932C2201.84,170.398 2195.76,172.349 2188.12,172.349ZM2155.95,211.622C2156.3,205.542 2159.08,200.46 2164.61,196.552C2169.13,193.347 2174.91,191.561 2182.03,191.561C2190.41,191.561 2196.14,193.914 2199.63,197.377C2202.56,200.287 2204.3,204.098 2204.49,208.949C2204.49,208.959 2204.49,208.969 2204.49,208.979C2204.65,213.488 2204.8,218.574 2204.95,224.236C2205.1,229.893 2205.22,235.889 2205.33,242.227C2205.44,248.59 2205.48,255.165 2205.46,261.949C2205.44,268.696 2205.4,275.337 2205.34,281.874C2205.27,288.432 2205.17,294.754 2205.03,300.84C2204.89,306.992 2204.67,312.613 2204.38,317.704C2203.92,325.704 2200.56,331.608 2194.65,335.608C2189.73,338.939 2182.81,340.895 2173.74,340.895C2168.19,340.895 2164.02,339.261 2161.03,336.661C2157.56,333.639 2155.61,329.352 2155.94,323.516C2156.76,309.272 2157.19,295.931 2157.23,283.493C2157.28,270.998 2157.19,259.878 2156.97,250.131C2156.75,240.401 2156.49,232.302 2156.19,225.833C2155.87,218.907 2155.8,214.17 2155.95,211.622Z" style="fill:rgb(255,204,50);"/>
                    </g>
                    <g id="Name-Shading" serif:id="Name Shading" transform="matrix(0.341254,0,0,1.02376,-168.451,175.069)">
                        <path d="M2847.35,117.846C2844.12,118.591 2840.9,116.576 2840.15,113.349C2839.41,110.122 2841.42,106.898 2844.65,106.154C2853.18,104.185 2859.38,105.016 2863.64,107.64C2868.28,110.495 2871.26,115.605 2871.97,123.457C2872.28,126.755 2869.84,129.676 2866.54,129.975C2863.24,130.275 2860.32,127.841 2860.03,124.543C2859.74,121.382 2859.22,119.009 2857.36,117.86C2855.12,116.482 2851.83,116.813 2847.35,117.846ZM2902.65,185.788C2900.56,188.356 2896.78,188.744 2894.21,186.653C2891.64,184.563 2891.26,180.781 2893.35,178.212C2906.48,162.072 2917.39,153.84 2925.89,150.259C2936.53,145.776 2944.3,147.839 2949.37,151.711C2954.04,155.279 2956.54,160.694 2956.97,165.457C2957.28,168.755 2954.84,171.676 2951.54,171.975C2948.24,172.275 2945.32,169.841 2945.03,166.543C2944.74,163.46 2942.16,159.75 2937.25,159.75C2933.75,159.75 2929.47,161.296 2924.24,164.797C2918.08,168.929 2910.92,175.637 2902.65,185.788ZM3051.66,184.756C3049.03,186.775 3045.26,186.283 3043.24,183.658C3041.22,181.033 3041.72,177.263 3044.34,175.244C3060.2,163.044 3086.45,172.731 3093.77,198.352C3094.68,201.536 3092.83,204.859 3089.65,205.769C3086.46,206.679 3083.14,204.832 3082.23,201.648C3079.3,191.384 3072.14,184.474 3064.46,182.48C3059.99,181.318 3055.36,181.909 3051.66,184.756ZM3141.66,191.798C3139.03,193.817 3135.26,193.326 3133.24,190.701C3131.22,188.076 3131.72,184.306 3134.34,182.287C3150.2,170.086 3176.45,179.773 3183.77,205.394C3184.68,208.578 3182.83,211.902 3179.65,212.812C3176.46,213.721 3173.14,211.875 3172.23,208.691C3169.3,198.427 3162.14,191.516 3154.46,189.522C3149.99,188.361 3145.36,188.952 3141.66,191.798ZM3280.62,180.397C3277.64,181.844 3274.05,180.6 3272.6,177.621C3271.16,174.643 3272.4,171.05 3275.38,169.603C3313.91,150.888 3361.96,157.507 3371.87,203.743C3372.56,206.981 3370.49,210.173 3367.26,210.867C3364.02,211.561 3360.83,209.495 3360.13,206.257C3352.04,168.486 3312.1,165.109 3280.62,180.397ZM3434.51,110.448C3431.51,111.835 3427.94,110.521 3426.55,107.514C3425.16,104.508 3426.48,100.94 3429.49,99.552C3447.11,91.419 3467.91,103.726 3463.85,121.349C3463.1,124.576 3459.88,126.591 3456.65,125.846C3453.42,125.102 3451.41,121.878 3452.15,118.651C3452.98,115.054 3451.02,112.228 3448.12,110.638C3444.36,108.579 3439.17,108.3 3434.51,110.448ZM3429.46,177.847C3426.25,178.654 3422.99,176.702 3422.18,173.491C3421.37,170.279 3423.33,167.016 3426.54,166.209C3433.19,164.535 3438.92,164.827 3443.74,167.38C3448.42,169.855 3452.51,174.593 3455.41,182.898C3460.04,196.138 3462.03,220.039 3461,260.154C3460.91,263.464 3458.16,266.083 3454.85,265.998C3451.54,265.913 3448.92,263.157 3449,259.846C3449.97,221.961 3448.46,199.362 3444.09,186.859C3442.49,182.288 3440.71,179.349 3438.13,177.987C3435.7,176.703 3432.81,177.005 3429.46,177.847ZM3524.15,98.962C3521.14,100.349 3517.57,99.035 3516.18,96.028C3514.8,93.022 3516.11,89.454 3519.12,88.066C3536.74,79.932 3557.55,92.24 3553.48,109.863C3552.74,113.09 3549.51,115.105 3546.28,114.36C3543.06,113.616 3541.04,110.391 3541.79,107.165C3542.62,103.568 3540.66,100.742 3537.75,99.151C3533.99,97.093 3528.8,96.814 3524.15,98.962ZM3260,175C3263.31,175 3266,177.689 3266,181C3266,184.311 3263.31,187 3260,187C3256.69,187 3254,184.311 3254,181C3254,177.689 3256.69,175 3260,175ZM3453,271C3456.31,271 3459,273.689 3459,277C3459,280.311 3456.31,283 3453,283C3449.69,283 3447,280.311 3447,277C3447,273.689 3449.69,271 3453,271ZM3526.9,171.692C3523.76,172.739 3520.36,171.039 3519.31,167.897C3518.26,164.756 3519.96,161.355 3523.1,160.308C3527.17,158.951 3531.43,158.129 3535.08,159.54C3537.88,160.622 3540.68,162.862 3542.68,167.72C3545.7,175.082 3547.13,191.374 3543.97,225.552C3543.67,228.849 3540.75,231.279 3537.45,230.975C3534.15,230.67 3531.72,227.746 3532.03,224.448C3534.35,199.322 3534.29,184.711 3532.71,176.408C3532.37,174.619 3531.97,173.19 3531.49,172.069C3531.33,171.708 3531.17,171.391 3530.99,171.116C3530.89,170.957 3530.91,170.76 3530.77,170.745C3529.53,170.611 3528.22,171.252 3526.9,171.692ZM2930.77,282.571C2927.7,281.341 2926.2,277.846 2927.43,274.772C2928.66,271.697 2932.15,270.199 2935.23,271.429C2949.82,277.266 2966.03,281.883 2979,284.085C2982.27,284.639 2984.47,287.739 2983.91,291.004C2983.36,294.269 2980.26,296.47 2977,295.915C2963.3,293.591 2946.18,288.734 2930.77,282.571ZM2918.5,265C2921.81,265 2924.5,267.689 2924.5,271C2924.5,274.311 2921.81,277 2918.5,277C2915.19,277 2912.5,274.311 2912.5,271C2912.5,267.689 2915.19,265 2918.5,265ZM2552.7,198.726C2550.65,201.322 2546.87,201.759 2544.27,199.702C2541.68,197.646 2541.24,193.869 2543.3,191.274C2574.63,151.733 2626.24,141.328 2651.92,151.58C2665.14,156.858 2672.36,167.036 2669.91,181.033C2669.34,184.295 2666.23,186.481 2662.97,185.91C2659.7,185.34 2657.52,182.229 2658.09,178.967C2660.04,167.8 2650.45,161.877 2637.27,160.226C2613,157.187 2576.4,168.82 2552.7,198.726ZM2646.91,259.18C2645.16,256.372 2646.01,252.667 2648.82,250.912C2651.63,249.157 2655.33,250.012 2657.09,252.82C2659.04,255.948 2661.4,260.043 2665.89,261.998C2670.58,264.035 2677.22,263.48 2687.4,258.591C2690.39,257.158 2693.98,258.418 2695.41,261.404C2696.84,264.389 2695.58,267.976 2692.6,269.409C2677.78,276.523 2667.93,275.967 2661.11,273.002C2654.1,269.957 2649.96,264.053 2646.91,259.18ZM2714.84,173.609C2712.3,175.729 2708.51,175.385 2706.39,172.841C2704.27,170.297 2704.62,166.511 2707.16,164.391C2712.24,160.161 2719.74,157.592 2725.88,159.395C2730.39,160.717 2734.61,164.105 2736.75,171.283C2737.7,174.456 2735.89,177.802 2732.72,178.749C2729.54,179.697 2726.2,177.89 2725.25,174.717C2724.74,173.005 2724.11,171.796 2723.12,171.183C2722.16,170.584 2721,170.708 2719.87,170.978C2718.04,171.419 2716.26,172.427 2714.84,173.609ZM2768.09,167.956C2766.33,170.763 2762.62,171.616 2759.82,169.86C2757.01,168.103 2756.16,164.398 2757.91,161.591C2772.61,138.11 2796.4,130.351 2820.14,139.393C2823.23,140.572 2824.79,144.041 2823.61,147.136C2822.43,150.231 2818.96,151.786 2815.86,150.607C2797.6,143.649 2779.39,149.89 2768.09,167.956Z" style="fill:rgb(255,241,112);"/>
                    </g>
                </g>
                <g id="Underline" transform="matrix(0.999947,-0.0256002,0.00414772,0.999947,-15.6105,18.859)">
                    <g id="Underline-Shadow" serif:id="Underline Shadow" transform="matrix(0.440228,0.0112705,-0.00453657,1.09369,200.4,106.277)">
                        <path d="M810.806,399.637C804.168,399.941 798.532,394.799 798.228,388.161C797.924,381.523 803.066,375.886 809.704,375.582C929.581,367.914 1041.72,362.941 1146.49,359.222C1340.11,352.349 1508.38,351.658 1653.69,358.261C1908.78,369.851 2093.54,403.133 2218.78,453.747C2243.03,464.39 2254.09,492.726 2243.45,516.987C2232.81,541.247 2204.47,552.303 2180.21,541.66C2064.22,486.666 1890.5,445.709 1649.07,421.174C1505.62,406.596 1339.01,397.245 1146.96,395.486C1042.44,394.528 930.527,396.322 810.806,399.637Z" style="fill:rgb(115,162,171);"/>
                    </g>
                    <g id="Underline-Body" serif:id="Underline Body" transform="matrix(0.440228,0.0112705,-0.00453657,1.09369,200.4,106.277)">
                        <path d="M800.284,396.345C793.652,396.765 787.926,391.723 787.506,385.091C787.085,378.459 792.128,372.733 798.759,372.313C918.483,362.539 1030.52,355.597 1135.2,350.038C1328.68,339.764 1496.91,336.118 1642.31,340.167C1897.57,347.274 2082.88,377.306 2208.99,425.712C2233.43,435.926 2244.98,464.064 2234.77,488.508C2224.55,512.951 2196.41,524.503 2171.97,514.288C2055.03,461.34 1880.62,423.442 1638.8,403.151C1495.11,391.095 1328.36,384.673 1136.32,386.288C1031.8,387.167 919.928,390.926 800.284,396.345Z" style="fill:rgb(147,183,190);"/>
                    </g>
                    <g id="Underline-Shading" serif:id="Underline Shading" transform="matrix(0.440228,0.0112705,-0.00453657,1.09369,-390.826,91.1406)">
                        <path d="M2878.19,366.138C2874.8,366.241 2871.97,363.575 2871.86,360.187C2871.76,356.8 2874.43,353.966 2877.81,353.862C3014.09,348.528 3163.26,359.906 3285.61,378.511C3397.78,395.569 3487.57,419.033 3525.38,441.016C3540.33,449.708 3548.01,459.407 3549.76,467.6C3551.08,474.09 3546.89,480.433 3540.4,481.758C3533.91,483.082 3527.57,478.889 3526.24,472.4C3525.85,470.361 3523.68,468.691 3520.99,466.515C3514.31,461.111 3503.96,455.618 3490.56,449.995C3446.6,431.542 3371.91,412.751 3282.54,397.578C3161.42,377.016 3013.55,363.176 2878.19,366.138ZM2860,355C2863.31,355 2866,357.689 2866,361C2866,364.311 2863.31,367 2860,367C2856.69,367 2854,364.311 2854,361C2854,357.689 2856.69,355 2860,355Z" style="fill:rgb(166,195,201);"/>
                    </g>
                </g>
                <g id="Emblem" transform="matrix(0.432986,0,0,1.0757,292.243,30.485)">
                    <g id="Logo-Shadow" serif:id="Logo Shadow" transform="matrix(1,0,0,1,19.3905,1.17127)">
                        <path d="M562.648,284.701C556.087,290.502 555.132,300.389 560.46,307.339C568.016,317.195 578.6,331 586.434,341.218C589.196,344.821 593.308,347.142 597.82,347.644C602.332,348.147 606.854,346.789 610.341,343.882C626.681,330.266 653.824,307.646 667.141,296.549C668.815,295.154 671.095,294.73 673.158,295.43C675.222,296.13 676.773,297.853 677.253,299.979C680.573,314.682 687.074,343.471 693.414,371.55C696.564,385.497 707.311,396.475 721.189,399.919C735.066,403.363 749.699,398.684 759.004,387.828C774.514,369.734 789.385,352.385 796.167,344.472C796.874,343.648 797.99,343.301 799.039,343.58C800.088,343.859 800.885,344.714 801.09,345.78C824.172,465.262 879.192,560.551 948.65,644.9C953.894,651.246 961.659,654.97 969.891,655.087C978.122,655.203 985.989,651.7 991.41,645.504C1004.3,630.803 1020.07,612.775 1030.08,601.336C1035.69,594.929 1035.57,585.327 1029.8,579.063C915.914,455.097 880.942,346.658 877.774,228.509C877.323,215.312 869.032,203.661 856.712,198.91C844.392,194.159 830.426,197.227 821.231,206.705C797.875,230.652 773.517,255.76 760.202,269.485C758.117,271.634 755.038,272.497 752.14,271.746C749.241,270.995 746.97,268.744 746.191,265.853C741.999,250.283 735.019,224.356 728.723,200.972C725.779,190.036 717.39,181.401 706.544,178.142C695.698,174.883 683.938,177.463 675.454,184.965C638.548,217.595 585.8,264.232 562.648,284.701Z" style="fill:rgb(242,166,0);"/>
                    </g>
                    <path id="Logo-Body" serif:id="Logo Body" d="M562.648,284.701C556.087,290.502 555.132,300.389 560.46,307.339C568.016,317.195 578.6,331 586.434,341.218C589.196,344.821 593.308,347.142 597.82,347.644C602.332,348.147 606.854,346.789 610.341,343.882C626.681,330.266 653.824,307.646 667.141,296.549C668.815,295.154 671.095,294.73 673.158,295.43C675.222,296.13 676.773,297.853 677.253,299.979C680.573,314.682 687.074,343.471 693.414,371.55C696.564,385.497 707.311,396.475 721.189,399.919C735.066,403.363 749.699,398.684 759.004,387.828C774.514,369.734 789.385,352.385 796.167,344.472C796.874,343.648 797.99,343.301 799.039,343.58C800.088,343.859 800.885,344.714 801.09,345.78C824.172,465.262 879.192,560.551 948.65,644.9C953.894,651.246 961.659,654.97 969.891,655.087C978.122,655.203 985.989,651.7 991.41,645.504C1004.3,630.803 1020.07,612.775 1030.08,601.336C1035.69,594.929 1035.57,585.327 1029.8,579.063C915.914,455.097 880.942,346.658 877.774,228.509C877.323,215.312 869.032,203.661 856.712,198.91C844.392,194.159 830.426,197.227 821.231,206.705C797.875,230.652 773.517,255.76 760.202,269.485C758.117,271.634 755.038,272.497 752.14,271.746C749.241,270.995 746.97,268.744 746.191,265.853C741.999,250.283 735.019,224.356 728.723,200.972C725.779,190.036 717.39,181.401 706.544,178.142C695.698,174.883 683.938,177.463 675.454,184.965C638.548,217.595 585.8,264.232 562.648,284.701Z" style="fill:rgb(255,204,50);"/>
                    <path id="Logo-Shading" serif:id="Logo Shading" d="M696.342,219.923C695.134,220.58 693.586,221.474 692.363,222.356C686.395,226.657 679.068,233.241 669.772,241.143C664.725,245.433 657.146,244.818 652.857,239.772C648.567,234.725 649.182,227.146 654.228,222.857C669.529,209.851 680.379,200.365 688.323,197.019C695.13,194.152 700.981,194.348 706.143,196.724C710.468,198.715 714.783,202.633 718.262,209.87C722.965,219.655 727.028,238.325 731.855,269.143C732.88,275.686 728.4,281.831 721.857,282.855C715.314,283.88 709.169,279.4 708.145,272.857C704.414,249.042 701.476,233.211 698.013,223.624C697.553,222.351 696.895,220.987 696.342,219.923ZM838.885,252.027C836.083,255.135 832.762,259.018 829.572,263.237C825.578,268.52 818.046,269.566 812.763,265.572C807.48,261.578 806.434,254.046 810.428,248.763C821.291,234.395 829.073,226.565 834.242,223.716C839.88,220.61 844.685,220.751 848.631,222.194C853.045,223.807 857.771,228.007 860.295,236.681C868.458,264.731 859.588,377.403 945.993,507.356C949.66,512.871 948.159,520.326 942.644,523.993C937.129,527.66 929.674,526.159 926.007,520.644C862.055,424.46 848.202,337.5 842.447,285.059C840.957,271.483 840.039,260.313 838.885,252.027ZM957,529C963.623,529 969,534.377 969,541C969,547.623 963.623,553 957,553C950.377,553 945,547.623 945,541C945,534.377 950.377,529 957,529Z" style="fill:rgb(255,241,112);"/>
                </g>
            </g>
        </g>
    </g>
</svg>
